<svg width="32" height="34" viewBox="0 0 32 34" fill="none" xmlns="http://www.w3.org/2000/svg">
<rect width="31.5077" height="33.7524" rx="8" fill="#44194A"/>
<path fill-rule="evenodd" clip-rule="evenodd" d="M20.2613 16.3792C20.8774 16.2287 21.6665 16.7006 21.6665 17.3348V17.8218C21.6665 18.1341 21.8598 18.4086 21.9634 18.7032C21.9878 18.7727 22 18.8449 22 18.9197V18.9504C22 19.8336 20.0981 20.5498 16.5 20.5498C12.721 20.5498 11 19.8336 11 18.9504V18.9197C11 18.8439 11.0129 18.7706 11.0387 18.6995C11.1447 18.4086 11.3335 18.1362 11.3335 17.8265V17.3348C11.3335 16.7006 12.1226 16.2287 12.7387 16.3792C13.1202 16.4718 13.4914 16.5576 13.9031 16.6253C13.9031 16.6253 13.949 17.2708 14.1216 17.6399C14.5689 18.5966 15.4088 19.0364 16.5 19.0499C17.579 19.0633 18.4225 18.6611 18.8977 17.7299C19.1068 17.3202 19.1474 16.5861 19.1474 16.5861C19.539 16.5345 19.8955 16.468 20.2613 16.3792Z" fill="white"/>
<path fill-rule="evenodd" clip-rule="evenodd" d="M22 10.6232V10.5994V10.5823C22 10.0708 21.4074 9.66498 20.2365 9.37852C19.2323 9.133 17.9052 9 16.5 9C15.0913 9 13.7642 9.133 12.7635 9.37852C11.5926 9.66498 11 10.0708 11 10.5823V10.6232C11 11.5064 12.721 12.2256 16.5 12.2256C20.0981 12.2256 22 11.5064 22 10.6232ZM14.6761 10.3265C15.251 10.3265 15.7194 10.4391 15.7194 10.5823C15.7194 10.7221 15.251 10.8381 14.6761 10.8381C14.0977 10.8381 13.6294 10.7221 13.6294 10.5823C13.6294 10.4391 14.0977 10.3265 14.6761 10.3265ZM20.2613 12.4371C20.8774 12.2865 21.6665 12.7584 21.6665 13.3927V13.5194C21.6665 13.7731 21.8087 13.9977 21.9256 14.2229C21.9753 14.3187 22 14.4191 22 14.5241V14.5616C22 15.2194 20.9449 15.7846 18.9197 16.0302C18.9197 16.0302 18.8727 15.9122 18.8352 15.84C18.7003 15.5795 18.5528 15.4511 18.3505 15.275C18.3161 15.245 18.28 15.2136 18.2421 15.18C18.1263 15.0769 18.0154 15.0142 17.9074 14.953C17.7768 14.8791 17.6503 14.8075 17.5242 14.67C17.3181 14.4454 17.2075 14.2968 17.1183 14.01C17.0482 13.7843 17.0443 13.6452 17.0559 13.41C17.0677 13.1708 17.1808 12.8086 17.1808 12.8086C18.3397 12.7729 19.4139 12.6457 20.2613 12.4371ZM16.8374 12.8165C16.7255 12.8182 16.613 12.819 16.5 12.819C15.0842 12.819 13.75 12.6826 12.7387 12.4371C12.1255 12.2872 11.3335 12.7617 11.3335 13.393V13.5223C11.3335 13.7741 11.1927 13.9973 11.0757 14.2203C11.0251 14.3169 11 14.4182 11 14.5241V14.5616C11 15.2154 11.9429 15.7776 13.9655 16.0256C13.9655 16.0256 14.0246 15.7606 14.0904 15.6C14.1797 15.382 14.3912 15.0882 14.4282 15.0375C14.4319 15.0324 14.4361 15.0277 14.4406 15.0233C14.5284 14.939 14.6869 15.039 14.6646 15.1588C14.6594 15.1868 14.6552 15.2141 14.6523 15.24C14.6341 15.403 14.6291 15.4975 14.6523 15.66C14.6718 15.7969 14.7417 15.9877 14.7675 16.0552C14.7738 16.0717 14.7807 16.0881 14.7879 16.1043C14.9747 16.1177 15.1688 16.1288 15.3702 16.1376C15.3702 16.1376 15.2522 15.6856 15.2454 15.39C15.2375 15.0471 15.2703 14.8492 15.3702 14.52C15.4924 14.1176 15.5993 13.8889 15.8697 13.56C16.1696 13.1951 16.8374 12.8165 16.8374 12.8165ZM21.6665 22.3031C21.6665 22.6262 21.8666 22.9115 21.9667 23.2187C21.9727 23.2371 21.9779 23.2557 21.9823 23.2745C21.9929 23.3154 22 23.3597 22 23.4006V23.4177C22 23.7894 21.6877 24.0997 21.0739 24.3555C20.1761 24.7477 18.6361 25 16.5 25C13.5477 25 11.8516 24.5635 11.2484 23.9497C11.0816 23.7894 11 23.6121 11 23.4177V23.4006C11 23.3597 11.0071 23.3154 11.0177 23.2745C11.0221 23.2557 11.0273 23.2371 11.0333 23.2187C11.1334 22.9115 11.3335 22.6262 11.3335 22.3031V21.7304C11.3335 21.0962 12.1226 20.6243 12.7387 20.7748C13.75 21.0204 15.0842 21.1568 16.5 21.1568C17.9158 21.1568 19.25 21.0204 20.2613 20.7748C20.8774 20.6243 21.6665 21.0962 21.6665 21.7304V22.3031Z" fill="white"/>
<path d="M16.5877 15.9C16.5826 16.0023 16.6189 16.1607 16.6189 16.1607C16.8275 16.1597 17.0303 16.1564 17.2272 16.1507C17.2272 16.1507 17.1187 16.0565 17.0559 15.99C16.9445 15.8719 16.8883 15.7984 16.8062 15.66C16.7998 15.6491 16.793 15.6372 16.7862 15.6248C16.7552 15.5681 16.6712 15.5689 16.6501 15.63L16.6469 15.6391C16.6134 15.7361 16.5929 15.7953 16.5877 15.9Z" fill="white"/>
<path d="M16.7597 16.752C16.7597 16.752 16.7756 16.8923 16.7597 16.9799C16.7367 17.1066 16.6902 17.1712 16.6189 17.2799C16.5314 17.4133 16.4738 17.4916 16.3379 17.5799C16.2385 17.6446 16.17 17.6609 16.057 17.6999C16.0152 17.7144 16.0027 17.7671 16.036 17.7962C16.0994 17.8516 16.1939 17.9282 16.2755 17.9699C16.4322 18.0501 16.5351 18.0846 16.7125 18.0899C16.887 18.0952 16.9894 18.0666 17.1496 17.9999C17.3645 17.9105 17.4878 17.8271 17.6178 17.6399C17.7121 17.5042 17.748 17.4112 17.7739 17.2499C17.7925 17.1342 17.784 17.0667 17.7739 16.9499C17.7667 16.8674 17.777 16.8159 17.7427 16.7399C17.7371 16.7277 17.7271 16.7091 17.7271 16.7091C17.4339 16.7252 17.1142 16.7391 16.7597 16.752Z" fill="white"/>
</svg>
