<svg width="89" height="133" viewBox="0 0 89 133" fill="none" xmlns="http://www.w3.org/2000/svg">
<path fill-rule="evenodd" clip-rule="evenodd" d="M78.5796 60.1555C81.7103 59.0922 85.7728 61.3545 85.7728 64.6608V75.5554C85.7728 76.7491 86.3576 77.8397 87.0997 78.7747C87.9949 79.9025 88.4373 81.1302 88.4373 82.4578V82.7129C88.4373 90.0547 73.2435 96.0075 44.4999 96.0075C14.3107 96.0075 0.5625 90.0547 0.5625 82.7129V82.4578C0.5625 81.1397 1.01221 79.9086 1.92201 78.7646C2.65685 77.8406 3.22709 76.7589 3.22709 75.5783V64.6608C3.22709 61.3545 7.28953 59.0922 10.4202 60.1555C11.6576 60.5758 13.0017 60.9707 14.4524 61.3395C17.4999 62.1094 20.4657 62.8227 23.7542 63.3852C23.7542 63.3852 24.1212 68.7514 25.4998 71.8195C29.0731 79.7717 35.7825 83.4275 44.4999 83.54C53.1197 83.6513 59.8583 80.3075 63.6539 72.5676C65.3244 69.1613 65.6489 63.0598 65.6489 63.0598C68.7777 62.6307 71.625 62.0778 74.5475 61.3395C75.9982 60.9707 77.3422 60.5758 78.5796 60.1555Z" fill="#44194A"/>
<path fill-rule="evenodd" clip-rule="evenodd" d="M88.4373 13.493V13.2946V13.1529C88.4373 8.90087 83.7034 5.52761 74.349 3.14649C66.3269 1.10552 55.7252 0 44.4999 0C33.2463 0 22.6446 1.10552 14.6508 3.14649C5.2964 5.52761 0.5625 8.90087 0.5625 13.1529V13.493C0.5625 20.8348 14.3107 26.8132 44.4999 26.8132C73.2435 26.8132 88.4373 20.8348 88.4373 13.493ZM29.9297 11.0269C34.5219 11.0269 38.2636 11.9623 38.2636 13.1529C38.2636 14.3151 34.5219 15.2789 29.9297 15.2789C25.3092 15.2789 21.5674 14.3151 21.5674 13.1529C21.5674 11.9623 25.3092 11.0269 29.9297 11.0269ZM78.5796 27.3867C81.7103 26.3234 85.7728 28.5857 85.7728 31.892V39.0394C85.7728 40.2199 86.343 41.3016 87.0778 42.2257C87.9876 43.3697 88.4373 44.6007 88.4373 45.9189V46.2307C88.4373 51.699 80.0083 56.3968 63.8296 58.4383C63.8296 58.4383 63.4544 57.458 63.1552 56.8571C62.0771 54.6919 60.8993 53.6251 59.2831 52.1612C59.0077 51.9118 58.7196 51.6508 58.4171 51.3709C57.4915 50.5145 56.6059 49.9929 55.743 49.4845C54.6998 48.87 53.6896 48.2749 52.6815 47.1315C51.0358 45.2648 50.1521 44.0298 49.4397 41.6453C48.8793 39.7698 48.8482 38.6131 48.9409 36.6579C49.0352 34.6694 49.9384 31.659 49.9384 31.659C59.1966 31.3619 67.7777 30.3047 74.5475 28.5707C75.9982 28.2018 77.3422 27.8069 78.5796 27.3867ZM47.1953 31.7244C46.3017 31.7384 45.4029 31.7455 44.4999 31.7455C33.1896 31.7455 22.5312 30.6116 14.4524 28.5707C13.0276 28.2084 11.7056 27.8233 10.4866 27.4141C7.33946 26.3575 3.22709 28.6462 3.22709 31.9659V39.0394C3.22709 40.2199 2.65685 41.3016 1.92201 42.2257C1.01221 43.3697 0.5625 44.6007 0.5625 45.9189V46.2307C0.5625 51.6651 8.09526 56.3386 24.253 58.4C24.253 58.4 24.7245 56.1978 25.2505 54.8621C25.9651 53.0471 27.659 50.6001 27.9505 50.185C27.9796 50.1436 28.0115 50.106 28.0473 50.0702V50.0702C28.7403 49.3773 30.0284 50.1615 29.8504 51.1252C29.8028 51.3829 29.7645 51.6335 29.7392 51.8696C29.5936 53.2253 29.5538 54.0101 29.7392 55.3609C29.913 56.6272 30.584 58.4475 30.7146 58.794C30.7294 58.8332 30.7448 58.8714 30.7611 58.91L30.8223 59.0548C32.315 59.166 33.8656 59.2585 35.4748 59.3311C35.4748 59.3311 34.5315 55.5739 34.4773 53.1165C34.4143 50.2663 34.6762 48.6215 35.4748 45.8847C36.4507 42.5399 37.3049 40.6387 39.4647 37.9047C41.8608 34.8718 47.1953 31.7244 47.1953 31.7244ZM85.7728 112.961C85.7728 114.145 86.3482 115.229 87.08 116.161C87.6982 116.947 88.0987 117.779 88.2956 118.657C88.3807 118.997 88.4373 119.365 88.4373 119.705V119.847C88.4373 122.937 85.9428 125.516 81.0389 127.642C73.8671 130.902 61.5647 133 44.4999 133C20.9154 133 7.36571 129.372 2.54677 124.269C1.21447 122.937 0.5625 121.463 0.5625 119.847V119.705C0.5625 119.365 0.619193 118.997 0.704234 118.657C0.901166 117.779 1.30162 116.947 1.91989 116.161C2.65164 115.229 3.22709 114.145 3.22709 112.961V101.2C3.22709 97.8934 7.28953 95.6311 10.4202 96.6944C11.6576 97.1147 13.0017 97.5096 14.4524 97.8784C22.5312 99.9194 33.1896 101.053 44.4999 101.053C55.8103 101.053 66.4686 99.9194 74.5475 97.8784C75.9982 97.5096 77.3422 97.1147 78.5796 96.6944C81.7103 95.6311 85.7728 97.8934 85.7728 101.2V112.961Z" fill="#44194A"/>
<path d="M45.2003 57.3558C45.1597 58.2068 45.4497 59.5231 45.4497 59.5231C47.1162 59.5154 48.7362 59.4875 50.3092 59.4402C50.3092 59.4402 49.4426 58.6572 48.9409 58.104C48.0511 57.1227 47.602 56.5116 46.9459 55.3609C46.895 55.2716 46.8417 55.1734 46.7878 55.0713C46.5444 54.6097 45.8636 54.6163 45.6991 55.1115V55.1115L45.6736 55.1879C45.4055 55.9939 45.2418 56.4862 45.2003 57.3558Z" fill="#44194A"/>
<path d="M46.5747 64.4385C46.5747 64.4385 46.702 65.6043 46.5747 66.3333C46.391 67.3857 46.0194 67.9232 45.4497 68.827C44.751 69.9354 44.2902 70.5862 43.2053 71.3207C42.4111 71.8585 41.8635 71.9937 40.961 72.3182V72.3182C40.6217 72.4402 40.5177 72.8681 40.7843 73.1107C41.2912 73.5721 42.0508 74.2133 42.7066 74.5626C43.9581 75.2292 44.7805 75.5154 46.1978 75.5601C47.5915 75.604 48.4094 75.3658 49.689 74.812C51.4058 74.0689 52.3912 73.3755 53.4296 71.8195C54.1826 70.6912 54.4696 69.9182 54.6765 68.5776C54.825 67.6152 54.7574 67.0544 54.6765 66.0839C54.6193 65.3977 54.7012 64.97 54.4271 64.3383C54.3829 64.2363 54.3027 64.0822 54.3027 64.0822C51.9608 64.216 49.4065 64.331 46.5747 64.4385Z" fill="#44194A"/>
</svg>
