<svg width="40" height="40" viewBox="0 0 40 40" fill="none" xmlns="http://www.w3.org/2000/svg">
<rect width="40" height="40" rx="20" fill="#6D717C" fill-opacity="0.28"/>
<path d="M17.8913 35C17.8913 35 18.1522 31.6415 18.8978 29.6473C20.1285 26.3554 23.6148 25.8697 24.3077 22.4274C24.7016 20.4703 24.4262 19.2853 24.0561 17.3237C23.3372 13.5143 19.8544 9.27761 17.6338 6.8961C17.003 6.21953 15.9021 6.7439 15.9229 7.6687C15.9457 8.68637 15.9169 9.81875 15.7525 10.7261C15.3011 13.2169 13.3484 16.6609 13.1303 17.0403C13.1165 17.0643 13.103 17.0853 13.0873 17.1081C12.8757 17.4152 11.2738 19.7795 10.8458 21.556C10.3787 23.4948 10.3908 24.7181 10.8458 26.6598C10.9329 27.0314 11.0724 27.4398 11.2342 27.8459C11.5835 28.7229 12.8389 28.5316 13.1152 27.629C13.3162 26.9725 13.5659 26.3116 13.8653 25.7884C14.7398 24.2602 16.8848 22.4274 16.8848 22.4274" stroke="white" stroke-width="3" stroke-linecap="round"/>
<path d="M24.5 8.5C24.5 8.5 28.1523 13.2701 28.98 16.8968C29.5724 19.4925 29.6664 21.0863 29.2222 23.7116C28.6652 27.0036 25.7108 31.5 25.7108 31.5" stroke="white" stroke-width="3" stroke-linecap="round"/>
</svg>
