<svg width="35" height="34" viewBox="0 0 35 34" fill="none" xmlns="http://www.w3.org/2000/svg">
<path fill-rule="evenodd" clip-rule="evenodd" d="M10.0534 7.49495C10.7422 7.03471 11.552 6.78906 12.3804 6.78906C12.9122 6.78906 13.3434 7.22022 13.3434 7.75207C13.3434 8.28393 12.9122 8.71509 12.3804 8.71509C11.9329 8.71509 11.4955 8.84778 11.1234 9.09638C10.7514 9.34498 10.4614 9.69832 10.2901 10.1117C10.1189 10.5251 10.0741 10.98 10.1614 11.4189C10.2487 11.8578 10.4642 12.2609 10.7806 12.5773C11.097 12.8937 11.5001 13.1092 11.939 13.1965C12.3778 13.2838 12.8327 13.239 13.2462 13.0677C13.6596 12.8965 14.0129 12.6065 14.2615 12.2345C14.5101 11.8624 14.6428 11.425 14.6428 10.9775C14.6428 10.4457 15.0739 10.0145 15.6058 10.0145C16.1377 10.0145 16.5688 10.4457 16.5688 10.9775C16.5688 11.8059 16.3232 12.6157 15.8629 13.3045C15.4027 13.9933 14.7486 14.5301 13.9832 14.8472C13.2179 15.1642 12.3757 15.2471 11.5632 15.0855C10.7507 14.9239 10.0044 14.525 9.41867 13.9392C8.8329 13.3534 8.43399 12.6071 8.27238 11.7947C8.11076 10.9822 8.19371 10.14 8.51072 9.37467C8.82774 8.60933 9.36458 7.95518 10.0534 7.49495Z" fill="#8D98AA"/>
<path fill-rule="evenodd" clip-rule="evenodd" d="M33.3044 12.373C33.8286 12.373 34.2535 12.8068 34.2535 13.342V21.4549C34.2535 25.6052 33.4508 28.7625 31.409 30.8585C29.3659 32.9557 26.2868 33.7807 22.241 33.7807H12.7584C8.71382 33.7807 5.63479 32.9561 3.59143 30.8591C1.54931 28.7633 0.74585 25.606 0.74585 21.4549V18.193C0.74585 17.6578 1.1708 17.224 1.695 17.224C2.21921 17.224 2.64416 17.6578 2.64416 18.193V21.4549C2.64416 25.4168 3.42262 27.938 4.9373 29.4925C6.45074 31.0456 8.90338 31.8429 12.7584 31.8429H22.241C26.0973 31.8429 28.5498 31.0453 30.0629 29.4921C31.5773 27.9375 32.3552 25.4163 32.3552 21.4549V13.342C32.3552 12.8068 32.7802 12.373 33.3044 12.373Z" fill="#8D98AA"/>
<path fill-rule="evenodd" clip-rule="evenodd" d="M3.63093 3.13483C5.70147 1.08059 8.82148 0.272461 12.9228 0.272461H19.3348C19.8634 0.272461 20.292 0.697644 20.292 1.22213C20.292 1.74662 19.8634 2.17181 19.3348 2.17181H12.9228C9.01037 2.17181 6.52051 2.95406 4.98462 4.47787C3.44873 6.00167 2.66026 8.47193 2.66026 12.3536C2.66026 12.878 2.23171 13.3032 1.70306 13.3032C1.17441 13.3032 0.74585 12.878 0.74585 12.3536C0.74585 8.28453 1.56039 5.18907 3.63093 3.13483Z" fill="#8D98AA"/>
<path fill-rule="evenodd" clip-rule="evenodd" d="M22.1534 5.85557C22.1534 5.34152 22.5995 4.9248 23.1497 4.9248H32.3264C32.8766 4.9248 33.3227 5.34152 33.3227 5.85557C33.3227 6.36962 32.8766 6.78634 32.3264 6.78634H23.1497C22.5995 6.78634 22.1534 6.36962 22.1534 5.85557Z" fill="#8D98AA"/>
<path fill-rule="evenodd" clip-rule="evenodd" d="M27.738 0.272461C28.2521 0.272461 28.6688 0.718521 28.6688 1.26876V10.4454C28.6688 10.9956 28.2521 11.4417 27.738 11.4417C27.224 11.4417 26.8073 10.9956 26.8073 10.4454V1.26876C26.8073 0.718521 27.224 0.272461 27.738 0.272461Z" fill="#8D98AA"/>
<path fill-rule="evenodd" clip-rule="evenodd" d="M26.8536 18.5845L20.2662 24.2868L20.2487 24.3016C19.4479 24.9619 18.443 25.3229 17.406 25.3229C16.3689 25.3229 15.3641 24.9619 14.5632 24.3016C14.5546 24.2945 14.5461 24.2872 14.5377 24.2798L14.0292 23.8296C13.6034 23.486 13.0803 23.2852 12.5341 23.256C11.9845 23.2267 11.4398 23.3725 10.9781 23.6725L3.16327 28.9618C2.72706 29.257 2.13461 29.142 1.84 28.7048C1.54539 28.2677 1.66018 27.674 2.09639 27.3788L9.93083 22.0762C10.7325 21.5522 11.6799 21.2974 12.6356 21.3485C13.5914 21.3996 14.5063 21.754 15.2478 22.3605C15.2574 22.3683 15.2669 22.3764 15.2762 22.3847L15.7863 22.8362C16.244 23.209 16.8159 23.4126 17.406 23.4126C17.9977 23.4126 18.5712 23.2078 19.0295 22.8331L25.6169 17.1308L25.6344 17.116C26.4352 16.4557 27.4401 16.0947 28.4771 16.0947C29.5142 16.0947 30.5191 16.4557 31.3199 17.116L31.3374 17.1308L33.9235 19.3696C34.3218 19.7145 34.3658 20.3176 34.0217 20.7168C33.6776 21.116 33.0757 21.16 32.6774 20.8152L30.1007 18.5845C29.6423 18.2097 29.0689 18.005 28.4771 18.005C27.8854 18.005 27.3119 18.2098 26.8536 18.5845Z" fill="#8D98AA"/>
</svg>
