<svg width="88" height="27" viewBox="0 0 88 27" fill="none" xmlns="http://www.w3.org/2000/svg">
<path fill-rule="evenodd" clip-rule="evenodd" d="M88 13.2946V13.493C88 20.8348 72.7845 26.8132 44 26.8132C13.7677 26.8132 0 20.8348 0 13.493V13.1529C0 8.90087 4.74064 5.52761 14.1084 3.14649C22.1135 1.10552 32.7303 0 44 0C55.2413 0 65.8581 1.10552 73.8916 3.14649C83.2594 5.52761 88 8.90087 88 13.1529V13.2946ZM37.7548 13.1529C37.7548 11.9623 34.0077 11.0269 29.409 11.0269C24.7819 11.0269 21.0348 11.9623 21.0348 13.1529C21.0348 14.3151 24.7819 15.2789 29.409 15.2789C34.0077 15.2789 37.7548 14.3151 37.7548 13.1529Z" fill="white"/>
</svg>
