<svg width="88" height="37" viewBox="0 0 88 37" fill="none" xmlns="http://www.w3.org/2000/svg">
<path fill-rule="evenodd" clip-rule="evenodd" d="M78.1435 0.544726C81.2731 -0.517949 85.3316 1.74328 85.3316 5.04833V15.9482C85.3316 17.1428 85.9174 18.2342 86.6607 19.1694C87.5569 20.2971 88 21.5247 88 22.8522V23.1073C88 30.4491 72.7845 36.4019 44 36.4019C13.7677 36.4019 0 30.4491 0 23.1073V22.8522C0 21.5342 0.45027 20.3033 1.3612 19.1593C2.09724 18.235 2.66839 17.1526 2.66839 15.971V5.04833C2.66839 1.74328 6.7269 -0.517949 9.85645 0.544726C11.0999 0.966938 12.4509 1.36356 13.9097 1.7339C16.9615 2.50379 19.9316 3.21713 23.2247 3.77967C23.2247 3.77967 23.5923 9.14584 24.9728 12.2139C28.5512 20.1662 35.2701 23.822 44 23.9345C52.6321 24.0457 59.3802 20.7019 63.1813 12.962C64.8541 9.55572 65.1791 3.45426 65.1791 3.45426C68.3124 3.0251 71.1638 2.47219 74.0903 1.7339C75.5491 1.36356 76.9001 0.966938 78.1435 0.544726Z" fill="white"/>
<path d="M46.0777 4.83292C46.0777 4.83292 46.2052 5.99878 46.0777 6.72771C45.8937 7.78017 45.5217 8.31766 44.9511 9.22144C44.2514 10.3298 43.79 10.9806 42.7036 11.7152C41.9082 12.2529 41.3599 12.3881 40.456 12.7127V12.7127C40.1165 12.8346 40.0124 13.2628 40.2794 13.5055C40.787 13.9668 41.5475 14.6078 42.2041 14.957C43.4574 15.6236 44.281 15.9098 45.7003 15.9545C47.096 15.9984 47.915 15.7603 49.1965 15.2064C50.9158 14.4633 51.9025 13.77 52.9424 12.2139C53.6965 11.0857 53.9839 10.3126 54.1911 8.97207C54.3398 8.0096 54.2721 7.44884 54.1911 6.47834C54.1338 5.79209 54.2158 5.36445 53.9413 4.73272C53.897 4.63072 53.8168 4.4766 53.8168 4.4766C51.4715 4.61038 48.9136 4.7254 46.0777 4.83292Z" fill="white"/>
</svg>
