<svg width="88" height="33" viewBox="0 0 88 33" fill="none" xmlns="http://www.w3.org/2000/svg">
<path d="M44.7014 30.5191C44.6608 31.3701 44.9511 32.6863 44.9511 32.6863C46.62 32.6786 48.2423 32.6507 49.8176 32.6034C49.8176 32.6034 48.9498 31.8205 48.4473 31.2672C47.5562 30.286 47.1064 29.6748 46.4495 28.5241C46.3985 28.4348 46.345 28.3366 46.2911 28.2344C46.0472 27.7725 45.3658 27.7791 45.2008 28.2747V28.2747L45.1754 28.3512C44.9069 29.1571 44.7429 29.6494 44.7014 30.5191Z" fill="white"/>
<path fill-rule="evenodd" clip-rule="evenodd" d="M78.1435 0.544726C81.2731 -0.517949 85.3316 1.74328 85.3316 5.04832V12.2009C85.3316 13.3825 85.9028 14.4649 86.6388 15.3892C87.5497 16.5331 88 17.7641 88 19.0821V19.3939C88 24.8623 79.559 29.5601 63.3572 31.6015C63.3572 31.6015 62.9815 30.6213 62.6818 30.0203C61.6022 27.8551 60.4228 26.7883 58.8043 25.3244C58.5285 25.075 58.24 24.814 57.937 24.5341C57.0101 23.6778 56.1233 23.1561 55.259 22.6478C54.2144 22.0333 53.2027 21.4382 52.1932 20.2948C50.5451 18.4281 49.6602 17.193 48.9468 14.8086C48.3856 12.9331 48.3545 11.7764 48.4473 9.82111C48.5417 7.83268 49.4462 4.82226 49.4462 4.82226C58.7176 4.52516 67.3109 3.46791 74.0903 1.7339C75.5491 1.36356 76.9001 0.966938 78.1435 0.544726ZM46.6992 4.88767C45.8043 4.90169 44.9042 4.90874 44 4.90874C32.6735 4.90874 22 3.77487 13.9097 1.7339C12.4768 1.37012 11.1478 0.983292 9.92265 0.572091C6.77668 -0.483829 2.66839 1.80364 2.66839 5.12209V12.2009C2.66839 13.3825 2.09724 14.4649 1.3612 15.3892C0.45027 16.5331 0 17.7641 0 19.0821V19.3939C0 24.8284 7.54349 29.5018 23.7242 31.5633C23.7242 31.5633 24.1964 29.361 24.7231 28.0254C25.4387 26.2105 27.1349 23.7637 27.4269 23.3483C27.4561 23.3069 27.4882 23.2693 27.524 23.2334V23.2334C28.2183 22.5402 29.5074 23.3261 29.3292 24.2909C29.2817 24.5477 29.2435 24.7974 29.2182 25.0329C29.0725 26.3885 29.0326 27.1734 29.2182 28.5241C29.3923 29.7904 30.0642 31.6106 30.195 31.9572C30.2098 31.9964 30.2253 32.0347 30.2417 32.0733L30.3028 32.218C31.7977 32.3293 33.3506 32.4217 34.962 32.4944C34.962 32.4944 34.0174 28.7372 33.9631 26.2797C33.9 23.4295 34.1623 21.7847 34.962 19.0479C35.9393 15.7032 36.7947 13.8019 38.9576 11.068C41.3571 8.03507 46.6992 4.88767 46.6992 4.88767Z" fill="white"/>
</svg>
