<svg width="88" height="37" viewBox="0 0 88 37" fill="none" xmlns="http://www.w3.org/2000/svg">
<path fill-rule="evenodd" clip-rule="evenodd" d="M87.8581 22.512C87.6609 21.6349 87.2599 20.803 86.6409 20.0163C85.908 19.0848 85.3316 18.0002 85.3316 16.8149V5.04832C85.3316 1.74327 81.2731 -0.517949 78.1435 0.544726C76.9001 0.966938 75.5491 1.36356 74.0903 1.7339C66 3.77487 55.3265 4.90873 44 4.90873C32.6735 4.90873 22 3.77487 13.9097 1.7339C12.4509 1.36356 11.0999 0.966938 9.85645 0.544726C6.7269 -0.517949 2.66839 1.74328 2.66839 5.04832V16.8149C2.66839 18.0002 2.09203 19.0848 1.35908 20.0163C0.74007 20.803 0.339122 21.6349 0.141935 22.512C0.0567742 22.8522 0 23.2207 0 23.5609V23.7026C0 25.3184 0.652903 26.7924 1.9871 28.1247C6.8129 33.2271 20.3819 36.8555 44 36.8555C61.089 36.8555 73.409 34.7578 80.591 31.498C85.5019 29.372 88 26.7924 88 23.7026V23.5609C88 23.2207 87.9432 22.8522 87.8581 22.512Z" fill="white"/>
</svg>
