<svg width="60" height="80" viewBox="0 0 60 80" fill="none" xmlns="http://www.w3.org/2000/svg">
<g clip-path="url(#clip0_539_5030)">
<path d="M0 8C0 3.58172 3.58172 0 8 0H34L60 26V72C60 76.4183 56.4183 80 52 80H8C3.58172 80 0 76.4183 0 72V8Z" fill="#FB9649"/>
<path d="M40 26H60L34 0V20C34 23.3137 36.6863 26 40 26Z" fill="white" fill-opacity="0.5"/>
</g>
<path d="M12.5751 50.4545L15.5083 55.4119H15.6219L18.5694 50.4545H22.0424L17.6035 57.7273L22.1418 65H18.6049L15.6219 60.0355H15.5083L12.5254 65H9.00263L13.5552 57.7273L9.08785 50.4545H12.5751ZM23.5884 50.4545H27.381L31.3867 60.2273H31.5572L35.5629 50.4545H39.3555V65H36.3725V55.5327H36.2518L32.4876 64.929H30.4563L26.6921 55.4972H26.5714V65H23.5884V50.4545ZM41.4892 65V50.4545H44.5645V62.4645H50.8003V65H41.4892Z" fill="white"/>
<defs>
<clipPath id="clip0_539_5030">
<rect width="60" height="80" fill="white"/>
</clipPath>
</defs>
</svg>
