<svg width="60" height="80" viewBox="0 0 60 80" fill="none" xmlns="http://www.w3.org/2000/svg">
<g clip-path="url(#clip0_539_5035)">
<path d="M0 8C0 3.58172 3.58172 0 8 0H34L60 26V72C60 76.4183 56.4183 80 52 80H8C3.58172 80 0 76.4183 0 72V8Z" fill="#3873FF"/>
<path d="M40 26H60L34 0V20C34 23.3137 36.6863 26 40 26Z" fill="white" fill-opacity="0.5"/>
</g>
<path d="M10.17 65H5.52935V51.9091H10.2083C11.5251 51.9091 12.6586 52.1712 13.6089 52.6953C14.5592 53.2152 15.29 53.9631 15.8014 54.9389C16.317 55.9148 16.5748 57.0824 16.5748 58.4418C16.5748 59.8054 16.317 60.9773 15.8014 61.9574C15.29 62.9375 14.5549 63.6896 13.5961 64.2138C12.6416 64.7379 11.4995 65 10.17 65ZM8.2971 62.6286H10.0549C10.8731 62.6286 11.5613 62.4837 12.1195 62.1939C12.682 61.8999 13.1039 61.446 13.3852 60.8324C13.6707 60.2145 13.8134 59.4176 13.8134 58.4418C13.8134 57.4744 13.6707 56.6839 13.3852 56.0703C13.1039 55.4567 12.6842 55.005 12.1259 54.7152C11.5677 54.4254 10.8795 54.2805 10.0613 54.2805H8.2971V62.6286ZM30.2949 58.4545C30.2949 59.8821 30.0243 61.0966 29.4831 62.098C28.9462 63.0994 28.2132 63.8643 27.2842 64.3928C26.3595 64.9169 25.3197 65.179 24.1649 65.179C23.0016 65.179 21.9575 64.9148 21.0328 64.3864C20.1081 63.858 19.3773 63.093 18.8403 62.0916C18.3034 61.0902 18.0349 59.8778 18.0349 58.4545C18.0349 57.027 18.3034 55.8125 18.8403 54.8111C19.3773 53.8097 20.1081 53.0469 21.0328 52.5227C21.9575 51.9943 23.0016 51.7301 24.1649 51.7301C25.3197 51.7301 26.3595 51.9943 27.2842 52.5227C28.2132 53.0469 28.9462 53.8097 29.4831 54.8111C30.0243 55.8125 30.2949 57.027 30.2949 58.4545ZM27.4888 58.4545C27.4888 57.5298 27.3503 56.75 27.0733 56.1151C26.8006 55.4801 26.4149 54.9986 25.9163 54.6705C25.4178 54.3423 24.8339 54.1783 24.1649 54.1783C23.4959 54.1783 22.9121 54.3423 22.4135 54.6705C21.9149 54.9986 21.5271 55.4801 21.2501 56.1151C20.9774 56.75 20.841 57.5298 20.841 58.4545C20.841 59.3793 20.9774 60.1591 21.2501 60.794C21.5271 61.429 21.9149 61.9105 22.4135 62.2386C22.9121 62.5668 23.4959 62.7308 24.1649 62.7308C24.8339 62.7308 25.4178 62.5668 25.9163 62.2386C26.4149 61.9105 26.8006 61.429 27.0733 60.794C27.3503 60.1591 27.4888 59.3793 27.4888 58.4545ZM43.5356 56.4922H40.7358C40.6847 56.13 40.5803 55.8082 40.4226 55.527C40.265 55.2415 40.0625 54.9986 39.8154 54.7983C39.5682 54.598 39.2827 54.4446 38.9589 54.3381C38.6392 54.2315 38.2919 54.1783 37.9169 54.1783C37.2394 54.1783 36.6492 54.3466 36.1464 54.6832C35.6435 55.0156 35.2536 55.5014 34.9766 56.1406C34.6996 56.7756 34.5611 57.5469 34.5611 58.4545C34.5611 59.3878 34.6996 60.1719 34.9766 60.8068C35.2579 61.4418 35.6499 61.9212 36.1527 62.245C36.6556 62.5689 37.2373 62.7308 37.8978 62.7308C38.2685 62.7308 38.6116 62.6818 38.9269 62.5838C39.2465 62.4858 39.5299 62.343 39.777 62.1555C40.0242 61.9638 40.2287 61.7315 40.3907 61.4588C40.5569 61.1861 40.6719 60.875 40.7358 60.5256L43.5356 60.5384C43.4631 61.1392 43.282 61.7188 42.9922 62.277C42.7067 62.831 42.3211 63.3274 41.8353 63.7663C41.3537 64.201 40.7785 64.5462 40.1094 64.8018C39.4446 65.0533 38.6925 65.179 37.853 65.179C36.6854 65.179 35.6414 64.9148 34.7209 64.3864C33.8047 63.858 33.0803 63.093 32.5476 62.0916C32.0192 61.0902 31.755 59.8778 31.755 58.4545C31.755 57.027 32.0235 55.8125 32.5604 54.8111C33.0973 53.8097 33.826 53.0469 34.7465 52.5227C35.6669 51.9943 36.7025 51.7301 37.853 51.7301C38.6116 51.7301 39.3147 51.8366 39.9624 52.0497C40.6144 52.2628 41.1918 52.5739 41.6946 52.983C42.1975 53.3878 42.6066 53.8842 42.9219 54.4723C43.2415 55.0604 43.4461 55.7337 43.5356 56.4922ZM47.4742 51.9091L50.1141 56.3707H50.2164L52.8691 51.9091H55.9948L51.9998 58.4545L56.0843 65H52.9011L50.2164 60.532H50.1141L47.4295 65H44.259L48.3563 58.4545L44.3357 51.9091H47.4742Z" fill="white"/>
<defs>
<clipPath id="clip0_539_5035">
<rect width="60" height="80" fill="white"/>
</clipPath>
</defs>
</svg>
