<svg width="70" height="80" viewBox="0 0 70 80" fill="none" xmlns="http://www.w3.org/2000/svg">
<g clip-path="url(#clip0_396_4168)">
<path d="M62 78.5H18C14.4101 78.5 11.5 75.5899 11.5 72V8C11.5 4.41015 14.4101 1.5 18 1.5H44.3787L68.5 25.6213V72C68.5 75.5899 65.5899 78.5 62 78.5Z" fill="white" stroke="#C8D2E1" stroke-width="3"/>
<path d="M44 2V20C44 23.3137 46.6863 26 50 26H68" stroke="#C8D2E1" stroke-width="3" stroke-linecap="round"/>
</g>
<rect y="40" width="63" height="30" rx="4" fill="#3873FF"/>
<path d="M11.17 62H6.52935V48.9091H11.2083C12.5251 48.9091 13.6586 49.1712 14.6089 49.6953C15.5592 50.2152 16.29 50.9631 16.8014 51.9389C17.317 52.9148 17.5748 54.0824 17.5748 55.4418C17.5748 56.8054 17.317 57.9773 16.8014 58.9574C16.29 59.9375 15.5549 60.6896 14.5961 61.2138C13.6416 61.7379 12.4995 62 11.17 62ZM9.2971 59.6286H11.0549C11.8731 59.6286 12.5613 59.4837 13.1195 59.1939C13.682 58.8999 14.1039 58.446 14.3852 57.8324C14.6707 57.2145 14.8134 56.4176 14.8134 55.4418C14.8134 54.4744 14.6707 53.6839 14.3852 53.0703C14.1039 52.4567 13.6842 52.005 13.1259 51.7152C12.5677 51.4254 11.8795 51.2805 11.0613 51.2805H9.2971V59.6286ZM31.2949 55.4545C31.2949 56.8821 31.0243 58.0966 30.4831 59.098C29.9462 60.0994 29.2132 60.8643 28.2842 61.3928C27.3595 61.9169 26.3197 62.179 25.1649 62.179C24.0016 62.179 22.9575 61.9148 22.0328 61.3864C21.1081 60.858 20.3773 60.093 19.8403 59.0916C19.3034 58.0902 19.0349 56.8778 19.0349 55.4545C19.0349 54.027 19.3034 52.8125 19.8403 51.8111C20.3773 50.8097 21.1081 50.0469 22.0328 49.5227C22.9575 48.9943 24.0016 48.7301 25.1649 48.7301C26.3197 48.7301 27.3595 48.9943 28.2842 49.5227C29.2132 50.0469 29.9462 50.8097 30.4831 51.8111C31.0243 52.8125 31.2949 54.027 31.2949 55.4545ZM28.4888 55.4545C28.4888 54.5298 28.3503 53.75 28.0733 53.1151C27.8006 52.4801 27.4149 51.9986 26.9163 51.6705C26.4178 51.3423 25.8339 51.1783 25.1649 51.1783C24.4959 51.1783 23.9121 51.3423 23.4135 51.6705C22.9149 51.9986 22.5271 52.4801 22.2501 53.1151C21.9774 53.75 21.841 54.5298 21.841 55.4545C21.841 56.3793 21.9774 57.1591 22.2501 57.794C22.5271 58.429 22.9149 58.9105 23.4135 59.2386C23.9121 59.5668 24.4959 59.7308 25.1649 59.7308C25.8339 59.7308 26.4178 59.5668 26.9163 59.2386C27.4149 58.9105 27.8006 58.429 28.0733 57.794C28.3503 57.1591 28.4888 56.3793 28.4888 55.4545ZM44.5356 53.4922H41.7358C41.6847 53.13 41.5803 52.8082 41.4226 52.527C41.265 52.2415 41.0625 51.9986 40.8154 51.7983C40.5682 51.598 40.2827 51.4446 39.9589 51.3381C39.6392 51.2315 39.2919 51.1783 38.9169 51.1783C38.2394 51.1783 37.6492 51.3466 37.1464 51.6832C36.6435 52.0156 36.2536 52.5014 35.9766 53.1406C35.6996 53.7756 35.5611 54.5469 35.5611 55.4545C35.5611 56.3878 35.6996 57.1719 35.9766 57.8068C36.2579 58.4418 36.6499 58.9212 37.1527 59.245C37.6556 59.5689 38.2373 59.7308 38.8978 59.7308C39.2685 59.7308 39.6116 59.6818 39.9269 59.5838C40.2465 59.4858 40.5299 59.343 40.777 59.1555C41.0242 58.9638 41.2287 58.7315 41.3907 58.4588C41.5569 58.1861 41.6719 57.875 41.7358 57.5256L44.5356 57.5384C44.4631 58.1392 44.282 58.7188 43.9922 59.277C43.7067 59.831 43.3211 60.3274 42.8353 60.7663C42.3537 61.201 41.7785 61.5462 41.1094 61.8018C40.4446 62.0533 39.6925 62.179 38.853 62.179C37.6854 62.179 36.6414 61.9148 35.7209 61.3864C34.8047 60.858 34.0803 60.093 33.5476 59.0916C33.0192 58.0902 32.755 56.8778 32.755 55.4545C32.755 54.027 33.0235 52.8125 33.5604 51.8111C34.0973 50.8097 34.826 50.0469 35.7465 49.5227C36.6669 48.9943 37.7025 48.7301 38.853 48.7301C39.6116 48.7301 40.3147 48.8366 40.9624 49.0497C41.6144 49.2628 42.1918 49.5739 42.6946 49.983C43.1975 50.3878 43.6066 50.8842 43.9219 51.4723C44.2415 52.0604 44.4461 52.7337 44.5356 53.4922ZM48.4742 48.9091L51.1141 53.3707H51.2164L53.8691 48.9091H56.9948L52.9998 55.4545L57.0843 62H53.9011L51.2164 57.532H51.1141L48.4295 62H45.259L49.3563 55.4545L45.3357 48.9091H48.4742Z" fill="white"/>
<defs>
<clipPath id="clip0_396_4168">
<rect width="60" height="80" fill="white" transform="translate(10)"/>
</clipPath>
</defs>
</svg>
