<svg width="70" height="80" viewBox="0 0 70 80" fill="none" xmlns="http://www.w3.org/2000/svg">
<g clip-path="url(#clip0_256_11798)">
<path d="M11.5 8C11.5 4.41015 14.4102 1.5 18 1.5H44.3787L68.5 25.6213V72C68.5 75.5899 65.5899 78.5 62 78.5H18C14.4101 78.5 11.5 75.5899 11.5 72V8Z" fill="white" stroke="#C8D2E1" stroke-width="3"/>
<path d="M44 2V20C44 23.3137 46.6863 26 50 26H68" stroke="#C8D2E1" stroke-width="3" stroke-linecap="round"/>
</g>
<rect y="38" width="55" height="32" rx="4" fill="#3873FF"/>
<path d="M11.7033 61H6.54702V46.4545H11.7459C13.2089 46.4545 14.4684 46.7457 15.5243 47.3281C16.5802 47.9058 17.3922 48.7367 17.9604 49.821C18.5333 50.9053 18.8197 52.2027 18.8197 53.7131C18.8197 55.2282 18.5333 56.5303 17.9604 57.6193C17.3922 58.7083 16.5754 59.544 15.5101 60.1264C14.4495 60.7088 13.1805 61 11.7033 61ZM9.6223 58.3651H11.5754C12.4845 58.3651 13.2492 58.2041 13.8695 57.8821C14.4945 57.5554 14.9632 57.0511 15.2757 56.3693C15.5929 55.6828 15.7516 54.7973 15.7516 53.7131C15.7516 52.6383 15.5929 51.7599 15.2757 51.0781C14.9632 50.3963 14.4968 49.8944 13.8766 49.5724C13.2563 49.2505 12.4916 49.0895 11.5825 49.0895H9.6223V58.3651ZM34.0643 53.7273C34.0643 55.3134 33.7636 56.6629 33.1623 57.7756C32.5657 58.8883 31.7513 59.7382 30.7191 60.3253C29.6916 60.9077 28.5363 61.1989 27.2532 61.1989C25.9606 61.1989 24.8005 60.9053 23.7731 60.3182C22.7456 59.7311 21.9336 58.8812 21.337 57.7685C20.7404 56.6558 20.4421 55.3087 20.4421 53.7273C20.4421 52.1411 20.7404 50.7917 21.337 49.679C21.9336 48.5663 22.7456 47.7187 23.7731 47.1364C24.8005 46.5492 25.9606 46.2557 27.2532 46.2557C28.5363 46.2557 29.6916 46.5492 30.7191 47.1364C31.7513 47.7187 32.5657 48.5663 33.1623 49.679C33.7636 50.7917 34.0643 52.1411 34.0643 53.7273ZM30.9464 53.7273C30.9464 52.6998 30.7925 51.8333 30.4847 51.1278C30.1817 50.4223 29.7532 49.8873 29.1992 49.5227C28.6452 49.1581 27.9966 48.9759 27.2532 48.9759C26.5098 48.9759 25.8612 49.1581 25.3072 49.5227C24.7532 49.8873 24.3223 50.4223 24.0146 51.1278C23.7115 51.8333 23.56 52.6998 23.56 53.7273C23.56 54.7547 23.7115 55.6212 24.0146 56.3267C24.3223 57.0322 24.7532 57.5672 25.3072 57.9318C25.8612 58.2964 26.5098 58.4787 27.2532 58.4787C27.9966 58.4787 28.6452 58.2964 29.1992 57.9318C29.7532 57.5672 30.1817 57.0322 30.4847 56.3267C30.7925 55.6212 30.9464 54.7547 30.9464 53.7273ZM48.7761 51.5469H45.6653C45.6085 51.1444 45.4925 50.7869 45.3173 50.4744C45.1421 50.1572 44.9172 49.8873 44.6426 49.6648C44.368 49.4422 44.0508 49.2718 43.6909 49.1534C43.3358 49.035 42.9499 48.9759 42.5332 48.9759C41.7804 48.9759 41.1246 49.1629 40.5659 49.5369C40.0072 49.9062 39.574 50.446 39.2662 51.1562C38.9584 51.8617 38.8045 52.7187 38.8045 53.7273C38.8045 54.7642 38.9584 55.6354 39.2662 56.3409C39.5787 57.0464 40.0143 57.5791 40.573 57.9389C41.1317 58.2988 41.778 58.4787 42.5119 58.4787C42.9239 58.4787 43.305 58.4242 43.6554 58.3153C44.0105 58.2064 44.3254 58.0478 44.6 57.8395C44.8746 57.6264 45.1019 57.3684 45.2818 57.0653C45.4665 56.7623 45.5943 56.4167 45.6653 56.0284L48.7761 56.0426C48.6956 56.7102 48.4944 57.3542 48.1724 57.9744C47.8552 58.59 47.4267 59.1416 46.8869 59.6293C46.3519 60.1122 45.7127 60.4957 44.9693 60.7798C44.2307 61.0592 43.395 61.1989 42.4622 61.1989C41.1649 61.1989 40.0048 60.9053 38.9821 60.3182C37.9641 59.7311 37.1592 58.8812 36.5673 57.7685C35.9802 56.6558 35.6866 55.3087 35.6866 53.7273C35.6866 52.1411 35.9849 50.7917 36.5815 49.679C37.1781 48.5663 37.9878 47.7187 39.0105 47.1364C40.0332 46.5492 41.1838 46.2557 42.4622 46.2557C43.305 46.2557 44.0863 46.3741 44.806 46.6108C45.5304 46.8475 46.172 47.1932 46.7307 47.6477C47.2894 48.0975 47.7439 48.6491 48.0943 49.3026C48.4494 49.956 48.6767 50.7041 48.7761 51.5469Z" fill="white"/>
<defs>
<clipPath id="clip0_256_11798">
<rect width="60" height="80" fill="white" transform="translate(10)"/>
</clipPath>
</defs>
</svg>
