<svg width="70" height="80" viewBox="0 0 70 80" fill="none" xmlns="http://www.w3.org/2000/svg">
<g clip-path="url(#clip0_256_11792)">
<path d="M11.5 8C11.5 4.41015 14.4102 1.5 18 1.5H44.3787L68.5 25.6213V72C68.5 75.5899 65.5899 78.5 62 78.5H18C14.4101 78.5 11.5 75.5899 11.5 72V8Z" fill="white" stroke="#C8D2E1" stroke-width="3"/>
<path d="M44 2V20C44 23.3137 46.6863 26 50 26H68" stroke="#C8D2E1" stroke-width="3" stroke-linecap="round"/>
</g>
<rect y="38" width="53" height="32" rx="4" fill="#35AC7A"/>
<path d="M19.4453 51.5469H16.3345C16.2777 51.1444 16.1617 50.7869 15.9865 50.4744C15.8113 50.1572 15.5864 49.8873 15.3118 49.6648C15.0371 49.4422 14.7199 49.2718 14.36 49.1534C14.0049 49.035 13.619 48.9759 13.2024 48.9759C12.4495 48.9759 11.7938 49.1629 11.235 49.5369C10.6763 49.9062 10.2431 50.446 9.93533 51.1562C9.62757 51.8617 9.47369 52.7187 9.47369 53.7273C9.47369 54.7642 9.62757 55.6354 9.93533 56.3409C10.2478 57.0464 10.6834 57.5791 11.2422 57.9389C11.8009 58.2988 12.4472 58.4787 13.1811 58.4787C13.593 58.4787 13.9742 58.4242 14.3245 58.3153C14.6797 58.2064 14.9945 58.0478 15.2691 57.8395C15.5438 57.6264 15.771 57.3684 15.951 57.0653C16.1356 56.7623 16.2635 56.4167 16.3345 56.0284L19.4453 56.0426C19.3648 56.7102 19.1636 57.3542 18.8416 57.9744C18.5243 58.59 18.0958 59.1416 17.5561 59.6293C17.021 60.1122 16.3818 60.4957 15.6385 60.7798C14.8998 61.0592 14.0641 61.1989 13.1314 61.1989C11.834 61.1989 10.674 60.9053 9.65124 60.3182C8.63325 59.7311 7.82833 58.8812 7.23647 57.7685C6.64935 56.6558 6.35579 55.3087 6.35579 53.7273C6.35579 52.1411 6.65408 50.7917 7.25067 49.679C7.84727 48.5663 8.65692 47.7187 9.67965 47.1364C10.7024 46.5492 11.8529 46.2557 13.1314 46.2557C13.9742 46.2557 14.7554 46.3741 15.4751 46.6108C16.1995 46.8475 16.8411 47.1932 17.3998 47.6477C17.9585 48.0975 18.4131 48.6491 18.7635 49.3026C19.1186 49.956 19.3458 50.7041 19.4453 51.5469ZM29.1412 50.6378C29.0843 50.0649 28.8405 49.6198 28.4096 49.3026C27.9788 48.9853 27.394 48.8267 26.6554 48.8267C26.1535 48.8267 25.7297 48.8977 25.3841 49.0398C25.0384 49.1771 24.7733 49.3688 24.5886 49.6151C24.4087 49.8613 24.3187 50.1406 24.3187 50.4531C24.3092 50.7135 24.3637 50.9408 24.4821 51.1349C24.6052 51.3291 24.7733 51.4972 24.9863 51.6392C25.1994 51.7765 25.4456 51.8973 25.725 52.0014C26.0043 52.1009 26.3026 52.1861 26.6199 52.2571L27.9267 52.5696C28.5611 52.7116 29.1435 52.901 29.6738 53.1378C30.2041 53.3745 30.6634 53.6657 31.0517 54.0114C31.4399 54.357 31.7406 54.7642 31.9537 55.233C32.1715 55.7017 32.2827 56.2391 32.2875 56.8452C32.2827 57.7353 32.0555 58.5071 31.6056 59.1605C31.1606 59.8092 30.5166 60.3134 29.6738 60.6733C28.8358 61.0284 27.8249 61.206 26.6412 61.206C25.4669 61.206 24.4442 61.026 23.573 60.6662C22.7065 60.3063 22.0294 59.7737 21.5417 59.0682C21.0588 58.358 20.8055 57.4796 20.7818 56.4332H23.7576C23.7908 56.9209 23.9305 57.3281 24.1767 57.6548C24.4276 57.9768 24.7614 58.2206 25.1781 58.3864C25.5995 58.5473 26.0753 58.6278 26.6056 58.6278C27.1265 58.6278 27.5787 58.5521 27.9622 58.4006C28.3504 58.2491 28.6511 58.0384 28.8642 57.7685C29.0772 57.4986 29.1838 57.1884 29.1838 56.8381C29.1838 56.5114 29.0867 56.2367 28.8926 56.0142C28.7032 55.7917 28.4238 55.6023 28.0545 55.446C27.6899 55.2898 27.2425 55.1477 26.7122 55.0199L25.1284 54.6222C23.902 54.3239 22.9338 53.8575 22.2235 53.223C21.5133 52.5885 21.1606 51.7339 21.1653 50.6591C21.1606 49.7784 21.3949 49.009 21.8684 48.3509C22.3467 47.6927 23.0024 47.179 23.8358 46.8097C24.6691 46.4403 25.6161 46.2557 26.6767 46.2557C27.7562 46.2557 28.6984 46.4403 29.5034 46.8097C30.313 47.179 30.9428 47.6927 31.3926 48.3509C31.8424 49.009 32.0744 49.7713 32.0886 50.6378H29.1412ZM36.5838 46.4545L40.0995 57.5057H40.2344L43.7571 46.4545H47.1662L42.152 61H38.189L33.1676 46.4545H36.5838Z" fill="white"/>
<defs>
<clipPath id="clip0_256_11792">
<rect width="60" height="80" fill="white" transform="translate(10)"/>
</clipPath>
</defs>
</svg>
