<svg width="70" height="80" viewBox="0 0 70 80" fill="none" xmlns="http://www.w3.org/2000/svg">
<g clip-path="url(#clip0_256_11707)">
<path d="M11.5 8C11.5 4.41015 14.4102 1.5 18 1.5H44.3787L68.5 25.6213V72C68.5 75.5899 65.5899 78.5 62 78.5H18C14.4101 78.5 11.5 75.5899 11.5 72V8Z" fill="white" stroke="#C8D2E1" stroke-width="3"/>
<path d="M44 2V20C44 23.3137 46.6863 26 50 26H68" stroke="#C8D2E1" stroke-width="3" stroke-linecap="round"/>
</g>
<rect y="38" width="64" height="32" rx="4" fill="#FAD643"/>
<path d="M12.2564 46.4545H15.2962V56.5966C15.2962 57.5341 15.0855 58.3485 14.6641 59.0398C14.2474 59.7311 13.6674 60.2637 12.924 60.6378C12.1807 61.0118 11.3166 61.1989 10.3317 61.1989C9.45577 61.1989 8.66031 61.045 7.94535 60.7372C7.23512 60.4247 6.67167 59.9512 6.25501 59.3168C5.83834 58.6776 5.63237 57.875 5.63711 56.9091H8.69819C8.70766 57.2926 8.78578 57.6217 8.93256 57.8963C9.08408 58.1662 9.29005 58.3745 9.55046 58.5213C9.81561 58.6634 10.1281 58.7344 10.488 58.7344C10.8668 58.7344 11.1864 58.6539 11.4468 58.4929C11.7119 58.3272 11.9132 58.0857 12.0505 57.7685C12.1878 57.4512 12.2564 57.0606 12.2564 56.5966V46.4545ZM25.3294 50.6378C25.2726 50.0649 25.0288 49.6198 24.5979 49.3026C24.167 48.9853 23.5823 48.8267 22.8436 48.8267C22.3418 48.8267 21.918 48.8977 21.5723 49.0398C21.2267 49.1771 20.9615 49.3688 20.7769 49.6151C20.597 49.8613 20.507 50.1406 20.507 50.4531C20.4975 50.7135 20.552 50.9408 20.6703 51.1349C20.7935 51.3291 20.9615 51.4972 21.1746 51.6392C21.3877 51.7765 21.6339 51.8973 21.9132 52.0014C22.1926 52.1009 22.4909 52.1861 22.8081 52.2571L24.115 52.5696C24.7494 52.7116 25.3318 52.901 25.8621 53.1378C26.3924 53.3745 26.8517 53.6657 27.24 54.0114C27.6282 54.357 27.9289 54.7642 28.1419 55.233C28.3597 55.7017 28.471 56.2391 28.4757 56.8452C28.471 57.7353 28.2437 58.5071 27.7939 59.1605C27.3489 59.8092 26.7049 60.3134 25.8621 60.6733C25.024 61.0284 24.0132 61.206 22.8294 61.206C21.6552 61.206 20.6325 61.026 19.7613 60.6662C18.8948 60.3063 18.2177 59.7737 17.73 59.0682C17.2471 58.358 16.9937 57.4796 16.9701 56.4332H19.9459C19.9791 56.9209 20.1187 57.3281 20.365 57.6548C20.6159 57.9768 20.9497 58.2206 21.3664 58.3864C21.7878 58.5473 22.2636 58.6278 22.7939 58.6278C23.3148 58.6278 23.7669 58.5521 24.1505 58.4006C24.5387 58.2491 24.8394 58.0384 25.0525 57.7685C25.2655 57.4986 25.3721 57.1884 25.3721 56.8381C25.3721 56.5114 25.275 56.2367 25.0809 56.0142C24.8915 55.7917 24.6121 55.6023 24.2428 55.446C23.8782 55.2898 23.4308 55.1477 22.9005 55.0199L21.3167 54.6222C20.0903 54.3239 19.1221 53.8575 18.4118 53.223C17.7016 52.5885 17.3489 51.7339 17.3536 50.6591C17.3489 49.7784 17.5832 49.009 18.0567 48.3509C18.5349 47.6927 19.1907 47.179 20.024 46.8097C20.8574 46.4403 21.8043 46.2557 22.865 46.2557C23.9445 46.2557 24.8867 46.4403 25.6917 46.8097C26.5013 47.179 27.1311 47.6927 27.5809 48.3509C28.0307 49.009 28.2627 49.7713 28.2769 50.6378H25.3294ZM43.5108 53.7273C43.5108 55.3134 43.2101 56.6629 42.6088 57.7756C42.0122 58.8883 41.1978 59.7382 40.1656 60.3253C39.1381 60.9077 37.9828 61.1989 36.6997 61.1989C35.4071 61.1989 34.247 60.9053 33.2196 60.3182C32.1921 59.7311 31.3801 58.8812 30.7835 57.7685C30.1869 56.6558 29.8886 55.3087 29.8886 53.7273C29.8886 52.1411 30.1869 50.7917 30.7835 49.679C31.3801 48.5663 32.1921 47.7187 33.2196 47.1364C34.247 46.5492 35.4071 46.2557 36.6997 46.2557C37.9828 46.2557 39.1381 46.5492 40.1656 47.1364C41.1978 47.7187 42.0122 48.5663 42.6088 49.679C43.2101 50.7917 43.5108 52.1411 43.5108 53.7273ZM40.3929 53.7273C40.3929 52.6998 40.239 51.8333 39.9312 51.1278C39.6282 50.4223 39.1997 49.8873 38.6457 49.5227C38.0917 49.1581 37.4431 48.9759 36.6997 48.9759C35.9563 48.9759 35.3076 49.1581 34.7537 49.5227C34.1997 49.8873 33.7688 50.4223 33.461 51.1278C33.158 51.8333 33.0065 52.6998 33.0065 53.7273C33.0065 54.7547 33.158 55.6212 33.461 56.3267C33.7688 57.0322 34.1997 57.5672 34.7537 57.9318C35.3076 58.2964 35.9563 58.4787 36.6997 58.4787C37.4431 58.4787 38.0917 58.2964 38.6457 57.9318C39.1997 57.5672 39.6282 57.0322 39.9312 56.3267C40.239 55.6212 40.3929 54.7547 40.3929 53.7273ZM57.555 46.4545V61H54.8988L48.5706 51.8452H48.4641V61H45.3888V46.4545H48.0877L54.3661 55.6023H54.4939V46.4545H57.555Z" fill="white"/>
<defs>
<clipPath id="clip0_256_11707">
<rect width="60" height="80" fill="white" transform="translate(10)"/>
</clipPath>
</defs>
</svg>
